# xmcd CD database file
#
# Track frame offsets:
#	182
#	14075
#	32665
#	54302
#	68817
#	97040
#	113740
#	128140
#	143382
#	155047
#	166362
#	179927
#	204095
#	221980
#	237195
#
# Disc length: 3498 seconds
#
# Revision: 0
# Processed by: cddbd v1.5PL3 Copyright (c) Steve Scherf et al.
# Submitted via: CDex 1.51
#
DISCID=d80da80f
DTITLE=Count Basie - Compilation
DYEAR=1900
DGENRE=Jazz
TTITLE0=Jive at Five
TTITLE1=Blue and sentimental
TTITLE2=Lullaby of birdland
TTITLE3=Cute
TTITLE4=Seque in C
TTITLE5=Topsy
TTITLE6=Jumpin'at the woodside
TTITLE7=Broadway
TTITLE8=Tickle toe
TTITLE9=Scoot
TTITLE10=Down for double
TTITLE11=Easy money
TTITLE12=Turnabout
TTITLE13=Taps miller
TTITLE14=Old man river
EXTD=
EXTT0=
EXTT1=
EXTT2=
EXTT3=
EXTT4=
EXTT5=
EXTT6=
EXTT7=
EXTT8=
EXTT9=
EXTT10=
EXTT11=
EXTT12=
EXTT13=
EXTT14=
PLAYORDER=
